<?xml version="1.0" encoding="UTF-8" standalone="no"?>
<svg width="100" height="100" viewBox="0 0 100 100" xmlns="http://www.w3.org/2000/svg">
  <g fill="#E9A178" opacity="0.8">
    <path d="M20,20 L30,10 L40,20 L50,10 L60,20 L70,10 L80,20 L90,10 L80,30 L90,40 L80,50 L90,60 L80,70 L90,80 L80,90 L70,80 L60,90 L50,80 L40,90 L30,80 L20,90 L10,80 L20,70 L10,60 L20,50 L10,40 L20,30 L10,20 Z" />
    <circle cx="50" cy="50" r="15" />
    <circle cx="50" cy="50" r="10" fill="#FFC09F" />
    <path d="M30,30 Q50,70 70,30" stroke="#E9A178" stroke-width="3" fill="none" />
  </g>
</svg> 