<?xml version="1.0" encoding="UTF-8" standalone="no"?>
<svg width="100" height="100" viewBox="0 0 100 100" xmlns="http://www.w3.org/2000/svg">
  <g fill="#B0C4DE" opacity="0.9">
    <path d="M50,10 L55,30 L75,30 L60,40 L65,60 L50,50 L35,60 L40,40 L25,30 L45,30 Z" />
    <path d="M30,60 L35,70 L45,70 L38,75 L41,85 L30,80 L19,85 L22,75 L15,70 L25,70 Z" />
    <path d="M70,60 L75,70 L85,70 L78,75 L81,85 L70,80 L59,85 L62,75 L55,70 L65,70 Z" />
    <circle cx="50" cy="25" r="5" fill="white" opacity="0.7" />
    <circle cx="30" cy="70" r="3" fill="white" opacity="0.7" />
    <circle cx="70" cy="70" r="3" fill="white" opacity="0.7" />
    <path d="M10,20 Q50,0 90,20" stroke="#B0C4DE" stroke-width="1" fill="none" />
    <path d="M10,30 Q50,10 90,30" stroke="#B0C4DE" stroke-width="1" fill="none" />
  </g>
</svg> 